<svg t="1776736104661" class="icon" viewBox="0 0 1024 1024" version="1.1" xmlns="http://www.w3.org/2000/svg" p-id="5662" data-darkreader-inline-fill="" width="16" height="16"><path d="M192 320h640a64 64 0 0 1 64 64v512a128 128 0 0 1-128 128H256a128 128 0 0 1-128-128V384a64 64 0 0 1 64-64z m32 96v448a64 64 0 0 0 64 64h448a64 64 0 0 0 64-64V416H224zM80 160h864a48 48 0 0 1 0 96h-864a48 48 0 0 1 0-96z m256-160h352a48 48 0 0 1 0 96h-352a48 48 0 0 1 0-96z m288 480a48 48 0 0 1 48 48v288a48 48 0 0 1-96 0v-288a48 48 0 0 1 48-48z m-224 0a48 48 0 0 1 48 48v288a48 48 0 0 1-96 0v-288a48 48 0 0 1 48-48z" fill="#EB3D3D" p-id="5663" data-darkreader-inline-fill="" style="--darkreader-inline-fill: var(--darkreader-background-eb3d3d, #a31111);"></path></svg>
