<?xml version="1.0" standalone="no"?><!DOCTYPE svg PUBLIC "-//W3C//DTD SVG 1.1//EN" "http://www.w3.org/Graphics/SVG/1.1/DTD/svg11.dtd"><svg class="icon" width="24px" height="24.00px" viewBox="0 0 1024 1024" version="1.1" xmlns="http://www.w3.org/2000/svg"><path d="M597.333333 85.333333H256a85.333333 85.333333 0 0 0-85.333333 85.333334v682.666666a85.333333 85.333333 0 0 0 85.333333 85.333334h512a85.333333 85.333333 0 0 0 85.333333-85.333334V341.333333l-256-256z m-42.666666 85.333334l213.333333 213.333333h-213.333333V170.666667zM363.989333 768h-32.426666v-60.202667H277.973333V768h-32.725333v-143.914667h32.725333v55.296h53.632v-55.296h32.426667V768z m128-116.565333h-39.296V768h-32.682666v-116.565333h-38.613334v-27.349334h110.592v27.349334zM632.234667 768l-2.133334-55.082667c-0.725333-17.28-1.28-38.229333-1.28-59.178666h-0.682666c-4.437333 18.389333-10.453333 38.869333-16 55.765333l-17.493334 56.149333h-25.472l-15.317333-55.765333a646.570667 646.570667 0 0 1-13.056-56.149333h-0.469333c-0.896 19.456-1.450667 41.642667-2.517334 59.562666L535.253333 768h-30.08l9.216-143.914667h43.306667l14.122667 48.042667c4.437333 16.682667 8.96 34.602667 12.117333 51.456h0.725333c4.053333-16.682667 8.917333-35.669333 13.653334-51.669333l15.317333-47.829334h42.496L664.021333 768h-31.786666z m146.517333 0h-89.941333v-143.914667h32.725333v116.565334h57.258667V768z" /></svg>