<?xml version="1.0" standalone="no"?><!DOCTYPE svg PUBLIC "-//W3C//DTD SVG 1.1//EN" "http://www.w3.org/Graphics/SVG/1.1/DTD/svg11.dtd"><svg class="icon" width="24px" height="24.00px" viewBox="0 0 1024 1024" version="1.1" xmlns="http://www.w3.org/2000/svg"><path d="M547.114667 645.205333c-22.058667 0-34.816 20.949333-34.816 48.896 0 28.202667 13.269333 48.042667 34.986666 48.042667 22.058667 0 34.645333-20.906667 34.645334-48.896 0-25.770667-12.416-48.042667-34.816-48.042667zM597.333333 85.333333H256a85.333333 85.333333 0 0 0-85.333333 85.333334v682.666666a85.333333 85.333333 0 0 0 85.333333 85.333334h512a85.333333 85.333333 0 0 0 85.333333-85.333334V341.333333l-256-256zM342.272 712.704c0 41.002667-19.669333 55.296-51.2 55.296-7.509333 0-17.322667-1.237333-23.765333-3.413333l3.669333-26.24c4.437333 1.493333 10.197333 2.56 16.682667 2.56 13.610667 0 22.186667-6.186667 22.186666-28.586667v-90.538667h32.469334v90.922667z m62.250667 55.082667c-16.426667 0-32.682667-4.266667-40.746667-8.746667l6.613333-26.922667c8.704 4.48 22.229333 9.002667 36.096 9.002667 14.933333 0 22.784-6.229333 22.784-15.573333 0-9.002667-6.784-14.122667-24.064-20.309334-23.978667-8.32-39.552-21.589333-39.552-42.496 0-24.576 20.522667-43.392 54.485334-43.392 16.213333 0 28.117333 3.413333 36.736 7.296l-7.338667 26.24c-5.76-2.773333-16-6.826667-30.08-6.826666s-20.949333 6.4-20.949333 13.866666c0 9.173333 8.106667 13.269333 26.752 20.309334 25.429333 9.386667 37.376 22.613333 37.376 42.922666 0.042667 24.149333-18.602667 44.629333-58.112 44.629334z m141.056 0.213333c-42.709333 0-67.669333-32.213333-67.669334-73.216 0-43.178667 27.562667-75.434667 70.058667-75.434667 44.16 0 68.309333 33.109333 68.309333 72.832C616.234667 739.413333 587.648 768 545.578667 768z m211.072-2.346667h-34.218667l-30.762667-55.552a539.306667 539.306667 0 0 1-24.96-50.773333l-0.682666 0.213333c0.896 18.986667 1.322667 39.296 1.322666 62.805334v43.349333h-29.909333v-143.914667h38.016l29.909333 52.736c8.533333 15.104 17.066667 33.066667 23.552 49.28h0.597334c-2.133333-18.986667-2.773333-38.4-2.773334-59.989333v-42.026667h29.952v143.872zM597.333333 384h-42.666666V170.666667l213.333333 213.333333h-170.666667z" /></svg>